<?xml version="1.0" standalone="no"?>
<!DOCTYPE svg PUBLIC "-//W3C//DTD SVG 20010904//EN"
 "http://www.w3.org/TR/2001/REC-SVG-20010904/DTD/svg10.dtd">
<svg version="1.0" xmlns="http://www.w3.org/2000/svg"
 width="512.000000pt" height="512.000000pt" viewBox="0 0 512.000000 512.000000"
 preserveAspectRatio="xMidYMid meet">

<g transform="translate(0.000000,512.000000) scale(0.100000,-0.100000)"
fill="#000000" stroke="none">
<path d="M0 2560 l0 -2560 2560 0 2560 0 0 2560 0 2560 -2560 0 -2560 0 0
-2560z m2950 2381 c534 -104 949 -319 1306 -676 370 -370 598 -823 681 -1355
25 -161 25 -519 0 -680 -83 -532 -311 -985 -681 -1356 -371 -370 -824 -598
-1356 -681 -160 -24 -519 -25 -680 0 -131 20 -339 69 -414 98 -28 10 -58 19
-66 19 -8 0 -37 11 -64 25 -27 14 -54 25 -59 25 -14 0 -136 59 -169 82 -14 10
-31 18 -36 18 -29 0 -240 138 -372 244 -90 71 -320 302 -319 319 0 7 26 33 57
58 72 58 461 376 604 494 l109 90 77 -76 c255 -251 558 -379 932 -396 514 -22
932 175 1194 566 20 30 33 58 29 62 -9 9 -628 400 -661 418 -17 9 -23 5 -44
-27 -65 -97 -189 -184 -308 -213 -31 -8 -103 -14 -165 -13 -91 0 -122 5 -181
26 -176 62 -298 193 -355 378 -30 96 -32 279 -5 380 43 160 157 304 294 373
97 48 163 60 302 55 109 -4 121 -6 193 -41 46 -21 99 -57 131 -87 l54 -51 164
147 c89 81 227 206 306 278 l144 131 -74 68 c-162 152 -355 254 -592 314 -84
20 -133 26 -288 30 -203 6 -294 -3 -445 -42 -234 -61 -424 -171 -617 -355
l-78 -75 -40 45 c-22 25 -65 81 -96 125 -31 44 -155 194 -274 334 -120 140
-218 258 -218 262 0 10 160 150 248 216 315 237 716 400 1122 457 167 24 561
16 710 -13z"/>
</g>
</svg>
